<svg xmlns="http://www.w3.org/2000/svg" viewBox="0 0 487.8 310.3">
  <g id="Layer_2" data-name="Layer 2">
    <g id="Layer_1-2" data-name="Layer 1">
      <g>
        <path d="M403.3,174.3c-.7-4.8-1.4-9.3-2-13.8a81.9,81.9,0,0,1,.6-23.7,20.8,20.8,0,0,1,4.5-9.9c3.8-4.4,9.2-5.9,14.2-4.1s8.2,6.4,8.4,12.1a105.1,105.1,0,0,0,4.9,28.4,61.7,61.7,0,0,0,5.6,11.2c5.1,8.6,10.5,17.1,15.5,25.8,1.4,2.4,2.8,3.7,5.6,4.2,8.2,1.2,16.2,2.7,24.3,4.2l2.7.5.2.3c-.7,4.8-.7,4.8-5.4,3.9l-27.1-4.7a4,4,0,0,1-3.5-2.9c-2.8-7.5-7.2-14-11.5-20.6-1.1-1.7-2.2-3.4-3.4-5-8.1-10.4-10.6-22.8-12.3-35.4-.4-3.3-.5-6.6-.7-9.8s-2.2-6.5-5.2-7.5a7.9,7.9,0,0,0-8.4,2.8c-2.4,2.9-3.3,6.3-3.8,9.8-1.4,10.9-.3,21.6,1.8,32.3.2,1.4.5,2.8.6,4.3s-.8,3.7-3.5,3.3L357,171.4l-2.6-.4a8.3,8.3,0,0,0-2.8,16.4l11.3,2c2.4.5,3.5,2.8,1.8,4.2a4.9,4.9,0,0,1-3.4.7l-15.9-2.7a8.3,8.3,0,1,0-3,16.3l15.3,2.7,1.9.4c1.5.4,2.3,1.3,2,2.9a2.3,2.3,0,0,1-3,2l-9.5-1.6a8.3,8.3,0,0,0-9.7,6.8,8.2,8.2,0,0,0,6.7,9.5l16.5,3c2.6.4,3.6,1.5,3.3,3.2s-1.7,2.3-4.2,1.8l-7.3-1.3c-5.2-.8-9.4,2-10.2,6.8s2.3,8.7,7.4,9.6c11.5,2.1,23,4.2,34.5,6.1,6.6,1.1,13.3,2.1,20,2.8a40.7,40.7,0,0,0,18.6-2.2,4.4,4.4,0,0,1,2-.1l37.9,6.7,1.7.4a20.6,20.6,0,0,1-2.1,3.9,2.6,2.6,0,0,1-2.3.5c-9.6-1.6-19.2-3.1-28.7-5.1a35.1,35.1,0,0,0-13.7.4c-8.9,1.9-17.9.9-26.8-.8L379,264a2.9,2.9,0,0,0-2.2.7c-9.1,10.6-20.9,15.3-34.6,15.4-5.9.1-11.9-.7-17.8-1.3-2.8-.2-2.8-.4-3.3,2.3s-.5,3.5-.9,5.3a2.7,2.7,0,0,0,1.3,3.4,10.8,10.8,0,0,1,4.7,12.3,11.1,11.1,0,0,1-10.6,8.2c-3.2,0-6.5-.8-9.7-1.3l-75.1-13.3c-4.4-.8-8.8-1.5-13.1-2.5a11.3,11.3,0,0,1-8.7-13.5c1-4.3,4.1-6.5,8-7.6,1.9-.5,2.5-1.5,2.9-3.3q8.4-48.3,17-96.7l6.6-37.5c.9-5.1,1.6-10.2,2.4-15-3.2-1.5-6.5-2.6-9.4-4.3a26.1,26.1,0,0,1-11.8-28,26.5,26.5,0,0,1,28-20.1,2.1,2.1,0,0,0,2.6-1.4c13-27.3,49.6-30.3,67.1-5.6a2,2,0,0,0,2.5,1c16.3-2.8,30.8,8.3,32.1,24.8a45.6,45.6,0,0,1-.2,6.4,2.4,2.4,0,0,0,1.2,2.9,18.3,18.3,0,0,1,8.6,19,18.7,18.7,0,0,1-15.2,15.1c-3.7.6-3.7.6-4.3,4.3-.3,1.7-.6,3.4-.8,5.1-.1.2,0,.4.1.7l9.3,2.2c8.1,2,15.9,4.9,22.7,10a41.5,41.5,0,0,1,14.5,19.1,3.1,3.1,0,0,0,2.8,2.3ZM256.2,118.5a15.7,15.7,0,0,1-2.8.4c-1.5-.1-2.2.6-2.4,2.2-1.3,7.9-2.8,15.8-4.2,23.7L224.3,272.7c-.4,2.1-1.2,3.4-3.4,3.6a13.7,13.7,0,0,0-2.9.7c-3,1.1-4.3,2.9-4.2,5.5a6.2,6.2,0,0,0,4.8,5.7c1.9.5,3.8.8,5.6,1.1l68.6,12.1c7.1,1.3,14.3,2.6,21.5,3.7a6.1,6.1,0,0,0,7.1-5.6c.3-2.7-1.5-5.2-4.5-6.4s-2.9-1.6-2.4-4.3l2.1-12.6c3.2-18.2,6.5-36.3,9.7-54.4,4.5-25.7,9-51.5,13.6-77.2.9-5.2,1.8-10.4,2.8-15.9l-14.6-2.4c-.2,1.2-.5,2.2-.7,3.2-.5,3.2-1,6.3-1.7,9.5a3.1,3.1,0,0,1-1.5,1.9c-2.3,1.1-2.7,3.4-1,5.3a2.7,2.7,0,0,1,.8,2.2c-.3,2.6-.9,5.2-1.2,7.8a2.4,2.4,0,0,1-1.8,2.2,2.8,2.8,0,0,0-.9,4.9,2.7,2.7,0,0,1,.9,3c-1.3,6.9-2.5,13.9-3.7,20.9-.8,4.1-1.5,8.2-2.2,12.5-2.8-1.8-5.3-2.1-7.6.1a4.8,4.8,0,0,0-1.3,5.7c1.4,3.1,4,3.9,7.2,3.1-.1.9-.2,1.6-.3,2.3-3,17.1-5.9,34.1-9.1,51.1-1.4,7.5-1.7,15.3-4.8,22.4,3.5.7,6.3-1.2,7-5.1s1.5-8.7,2.3-13.1c.3-1.8,1.5-2.8,2.9-2.5a2.7,2.7,0,0,1,2.2,3.2c-.9,4.9-1.6,9.7-2.7,14.5a10.7,10.7,0,0,1-11.9,8.3c-1.8-.2-3.5-.6-5.3-.9l-21.3-3.7a2.6,2.6,0,0,1-2.3-3.1c.3-1.7,1.6-2.2,3.2-1.9l4.8.8c5.5.9,5.5.9,6.5-4.6,2.1-11.5,4.1-23,6.1-34.5q6.6-37.1,13.1-74.1c.3-1.3.2-2.1-1.4-2.6a9.3,9.3,0,0,1-6.3-9.4c.3-4.2,3.2-8.2,7.4-8.4s4.7-2.2,4.9-5.3c.1-1.2.5-1.9,1.8-2.1a4.2,4.2,0,0,0,1.2-7.9c-1-.5-1.1-1-.9-2s.7-4.3,1.1-6.6c-2.3-.4-4.2-.7-6.1-1.2s-2.2,0-2.9,1.5a16.6,16.6,0,0,1-16.7,9.6c-8-1-13.7-6-15.3-13.5-.2-1.3-.1-3.1-.9-3.8s-2.6-.5-4-.7a3.3,3.3,0,0,0-4.2,2.9q-5.1,28.3-10,56.7c-.5,2.5-.9,5.1-1.4,7.6a2.5,2.5,0,0,1-2.8,2.4c-1.5-.1-2.3-1.4-2.1-3.3a1.9,1.9,0,0,1,.1-.8c1.9-10.7,3.8-21.4,5.6-32.2S254.4,128.8,256.2,118.5Zm69.6-52.1a19,19,0,0,1,1.3,3.8c.7,4.2,1.4,8.4,1.9,12.6a2.3,2.3,0,0,1-2.4,2.6c-1.6,0-2.3-1-2.5-2.5a12.1,12.1,0,0,1,0-1.9c-.8-24.8-27.4-40.4-49.2-28.7-11.3,6-17.2,15.6-18,28.4-.1,1.9-1,3.1-2.5,3.1s-2.5-1.2-2.5-3.3a10.9,10.9,0,0,0,.1-1.8c.3-2,.6-4.1.9-6.5-2.3.2-4.5,0-6.5.4-8.9,1.9-14.6,7.4-16.7,16.3a20.7,20.7,0,0,0,8.5,21.5,21,21,0,0,0,23.4.4,6.7,6.7,0,0,1,3.7-.8c2.3.2,4.6.8,6.9,1.2s3.4,1.2,3.1,4.1a11.9,11.9,0,0,0,15.8,12.4c7-2.3,10-10.1,6.7-17-.9-1.8-.7-3.2.7-3.9s2.9-.2,3.6,1.6a33.1,33.1,0,0,1,2,6.8c.2,1.4.7,1.8,1.9,2l40.3,7a12.6,12.6,0,0,0,12.2-4.4c5.7-6.5,3.6-17.3-4-20.4a10.8,10.8,0,0,1-1.1,1.8c-2.1,2.5-4.1,5.1-6.3,7.4a2.2,2.2,0,0,1-3.5-.2,2.4,2.4,0,0,1,.3-3.5l1-.9A22,22,0,0,0,352,88.7C352.7,74.6,339.2,63,325.8,66.4ZM349,258.7c-5.2-1.9-8.5-5.1-9.8-10s.3-9.4,3.8-13.2c-10.1-4.7-11.8-15.9-4.7-23.2l-4.4-3a9.4,9.4,0,0,1-.3.9c-2.7,15.5-5.5,31.1-8.2,46.6-.3,1.2.2,1.5,1.2,1.7l5.7.7C337.7,259.7,343.1,260.1,349,258.7Zm22.8,3.8c-1.8-.4-3.1-.5-4.5-.9-4.7-1.2-9.4-1.8-13.8,1.3h-.4c-6.1,2.1-12.5,2.1-18.8,1.6-3.4-.3-6.7-.8-10.2-1.2-.6,3.3-1.2,6.5-1.7,9.9a101.1,101.1,0,0,0,21.2,1.7,48.1,48.1,0,0,0,14.6-3A36.9,36.9,0,0,0,371.8,262.5Zm-28.5-108,7.9,1.9c7.3,1.8,14.7,3.9,20.1,9.3a16.9,16.9,0,0,0,10.9,5.1c1.4.1,2.7.5,4.1.7h1.4a36.3,36.3,0,0,0-10.6-14.4c-6.2-5-13.4-7.9-21-9.9-3.6-1-7.2-1.8-11-2.7C344.4,148.1,343.9,151.2,343.3,154.5Zm-1.8,31.7a4.1,4.1,0,0,0-.3-1,12.9,12.9,0,0,1,1.6-14.4c3.5-4.3,8.1-5.8,13.6-4.8l8.1,1.4c-2.5-2.9-16.6-7.1-22-7.4-1.6,9-3.2,18-4.9,27.4Zm-31.7-30a4.3,4.3,0,0,0-8.6.2,4.3,4.3,0,0,0,8.6-.2Z"/>
        <path d="M1,204.3l-1-5,13.3-2.4c13.1-2.3,26.2-4.7,39.3-6.9a3.8,3.8,0,0,0,2.9-2.2c2.8-5.4,5.9-10.8,9-16.1a30.3,30.3,0,0,1,3.1-4.8c10.7-13.2,13.6-28.9,14.6-45.2a19.8,19.8,0,0,1,.3-3.5c1.1-4.7,3.8-8.1,8.4-9.6s8.9-.3,12.6,3l2.2,1.9.6-2.8a39,39,0,0,1,6.4-15.5,16.4,16.4,0,0,1,4-4.3c1.9-1.2,2.3-2.8,2.5-4.9q2.5-28.8,5.2-57.8a6.5,6.5,0,0,0-.9-3.8,10.4,10.4,0,0,1-.9-5,21.5,21.5,0,0,1,.9-4.4c.6-2.4,1.2-4.5-.1-7s-.4-3.2,0-4.8S125.5,0,127.8,0h25.7c3.8.1,6.2,4.2,4.4,8.2-1.1,2.3-.7,4.2-.2,6.4a33.3,33.3,0,0,1,1.1,5.3,8.1,8.1,0,0,1-.7,4.4,6.3,6.3,0,0,0-1,4.4c1.2,13.5,2.5,27,3.7,40.5l1.5,17.1a5.4,5.4,0,0,0,2.2,4.4c4.5,3.4,6.9,8.3,8.8,13.5a50.4,50.4,0,0,1,3,16.8v26.8h2.1c5.6-1.1,10.4.4,13.9,5s3.7,9.4,1.3,14.5c-.1.1-.1.3-.2.7,6.1,1.6,10.5,5.1,11.3,11.7s-2.3,11.1-8,14.3c3.3,3.7,5.2,7.8,4.1,12.8s-4.1,8.3-8.8,10.3l1,1.3a13.5,13.5,0,0,1-7.8,22.1l-7.3,1.3c-1.2.2-1.7.7-1.7,1.9a74.7,74.7,0,0,1-.3,10.6,21.4,21.4,0,0,1-2.3,7,8.9,8.9,0,0,1-8.4,4.9h-49c-5.1-.1-8.7-3.2-10.3-8.8-1-3.5-1-3.5-4.6-3.5a52.1,52.1,0,0,1-15.2-2,4.4,4.4,0,0,0-2.3-.2L23.2,262.4c-1.4.3-2.3.1-2.8-1.4s-.9-1.9-1.4-3.1l8.1-1.5L83,246.6a12.1,12.1,0,0,1,5,.3,50.3,50.3,0,0,0,22.8,1.2c18.9-3.1,37.7-6.5,56.6-9.8l16.4-2.9c5-.9,8-5.2,7-9.9a8.4,8.4,0,0,0-9.9-6.5l-20.3,3.6-1.2.2c-1.6.2-2.8-.5-3-2.1s.6-2.6,2.2-2.9l11.4-2.1,18.4-3.2c5.1-.9,8.1-5.1,7.2-9.9s-5.1-7.3-10-6.5l-24.8,4.3c-2.1.4-3.4-.3-3.7-1.9s.7-2.7,2.8-3.1l32.3-5.7c5.5-1,8.6-5.8,7-10.8a8.2,8.2,0,0,0-9.7-5.6l-29.6,5.2-1.9.3a2.4,2.4,0,0,1-2.9-2.1c-.3-1.6.6-2.6,2.2-2.9l11.6-2.1,13.7-2.4c5.1-.9,8.1-5,7.2-9.8s-5-7.5-10.1-6.6l-73.6,12.9c-3.1.6-4.2-.4-3.8-3.7.9-5.7,2-11.5,2.6-17.3a66.6,66.6,0,0,0-.7-20.9,21.8,21.8,0,0,0-3.3-7.5,7.3,7.3,0,0,0-8.5-2.9c-3,1-4.9,3.8-5.1,7.5a119.4,119.4,0,0,1-4.2,27.3,47.4,47.4,0,0,1-6,13.6C73,168,69,174,65.2,180.2a122.1,122.1,0,0,0-6,12,3.7,3.7,0,0,1-3,2.4L5.5,203.5ZM137.6,68h.5c0-4.2-.1-8.5,0-12.7s.3-6.6.3-9.8a4.2,4.2,0,0,0-5.3-4.5c-1.9.5-3.1,2.2-3.2,4.7-.5,14.5-1,29-1.6,43.6a4.5,4.5,0,0,1-.9,2.5,23.6,23.6,0,0,0-6.1,11.7,93.9,93.9,0,0,0-1.7,14c-.3,6.8,0,13.6-.1,20.4s-.2,12.6-.4,18.8c0,1.4.6,1.7,1.8,1.5a49.4,49.4,0,0,1,5.3-1c1.8-.1,2.4-.9,2.3-2.7-.2-7.4-.4-14.7-.5-22-.1-5.8-.1-11.7.1-17.5s.8-11,3.3-16c.8-1.7,2.4-2.9,3.4-4.5a8.7,8.7,0,0,0,1.8-3.9C137.1,83.1,137.3,75.6,137.6,68Zm1.8-47c0-2.9-1.5-4.9-4-5s-4.2,1.6-4.5,4.4.9,6.2,3.7,6.4S139.3,25,139.4,21Zm31.2,119.3h-.2v8.4h.2Z"/>
        <path d="M218.4,149a14.5,14.5,0,1,1,14.1-14.6A14.3,14.3,0,0,1,218.4,149Zm-.3-5.1a9.4,9.4,0,0,0,9.3-9.5,9.4,9.4,0,1,0-9.3,9.5Z"/>
        <path d="M199.7,56.6a13.1,13.1,0,1,1-13.2,13A13,13,0,0,1,199.7,56.6Zm-.2,21.1a8.1,8.1,0,1,0-8-8A8,8,0,0,0,199.5,77.7Z"/>
        <path d="M233.4,41.8a10.8,10.8,0,1,1,10.7,10.8A10.6,10.6,0,0,1,233.4,41.8Zm10.7-5.7a5.8,5.8,0,1,0,5.8,5.7A5.9,5.9,0,0,0,244.1,36.1Z"/>
        <path d="M276.2,189.7c-5.4,0-9.2-3.8-9.1-9a8.9,8.9,0,0,1,8.8-8.6,8.8,8.8,0,0,1,8.8,9.1A8.6,8.6,0,0,1,276.2,189.7Zm-.4-5a3.6,3.6,0,0,0,3.8-3.6,3.7,3.7,0,0,0-3.7-3.9A3.8,3.8,0,0,0,272,181,3.8,3.8,0,0,0,275.8,184.7Z"/>
        <path d="M240.1,274.2l14.7,2.6,7.1,1.2c2,.4,2.9,1.6,2.6,3.1s-1.6,2.3-3.5,2l-21.3-3.8c-1.9-.3-2.8-1.4-2.6-3S238.4,274.2,240.1,274.2Z"/>
        <path d="M239,216.6l2.4-14.2c.5-2.4.9-4.9,1.4-7.3s1.4-2.8,3-2.6,2.3,1.5,2,3.3c-1.2,7-2.5,14.1-3.8,21.2-.2,1.5-1.1,2.6-2.7,2.4A2.5,2.5,0,0,1,239,216.6Z"/>
      </g>
    </g>
  </g>
</svg>
